<svg width="18" height="18" viewBox="0 0 18 18" fill="none" xmlns="http://www.w3.org/2000/svg">
<path d="M12.5286 2.60882L13.9686 1.16882C14.5934 0.543986 15.6065 0.543986 16.2313 1.16882C16.8562 1.79366 16.8562 2.80673 16.2313 3.43157L7.17008 12.4928C6.71895 12.9439 6.16251 13.2756 5.55106 13.4577L3.25995 14.1402L3.94243 11.8491C4.12457 11.2377 4.45619 10.6812 4.90733 10.2301L12.5286 2.60882ZM12.5286 2.60882L14.78 4.86019M13.5 10.7269V14.7802C13.5 15.8406 12.6403 16.7002 11.58 16.7002H2.61995C1.55956 16.7002 0.699951 15.8406 0.699951 14.7802V5.82019C0.699951 4.7598 1.55956 3.90019 2.61995 3.90019H6.67329" stroke="white" stroke-width="1.4" stroke-linecap="round" stroke-linejoin="round"/>
</svg>
