<svg width="15" height="15" viewBox="0 0 15 15" fill="none" xmlns="http://www.w3.org/2000/svg">
<path opacity="0.7" d="M8.64211 3.44737C9.36185 3.58779 10.0232 3.93977 10.5418 4.45827C11.0603 4.97677 11.4123 5.63819 11.5526 6.35789M8.64211 0.5C10.1374 0.666114 11.5317 1.3357 12.5962 2.39885C13.6607 3.46199 14.3321 4.85548 14.5 6.35053M11.9211 14.5C5.61338 14.5 0.5 9.38661 0.5 3.07895C0.5 2.79436 0.510412 2.51221 0.530866 2.23285C0.554342 1.91225 0.56608 1.75195 0.650095 1.60602C0.719682 1.48517 0.843 1.37055 0.968617 1.30997C1.12028 1.23684 1.29717 1.23684 1.65095 1.23684H3.72687C4.02437 1.23684 4.17313 1.23684 4.30065 1.28581C4.41329 1.32906 4.51359 1.39931 4.59273 1.49039C4.68232 1.5935 4.73316 1.7333 4.83483 2.01289L5.69407 4.37583C5.81234 4.70113 5.87151 4.86378 5.86148 5.01809C5.85264 5.15417 5.80615 5.28511 5.72731 5.39636C5.6379 5.52252 5.48949 5.61157 5.19267 5.78966L4.18421 6.39474C5.06982 8.34656 6.65271 9.93151 8.60526 10.8158L9.21036 9.80735C9.38845 9.51047 9.47746 9.36207 9.60361 9.27269C9.71487 9.19385 9.84581 9.14736 9.98191 9.13852C10.1362 9.12849 10.2989 9.18766 10.6242 9.30593L12.9871 10.1652C13.2667 10.2668 13.4065 10.3177 13.5096 10.4073C13.6007 10.4864 13.671 10.5867 13.7142 10.6994C13.7632 10.8268 13.7632 10.9756 13.7632 11.2731V13.3491C13.7632 13.7028 13.7632 13.8797 13.69 14.0314C13.6294 14.157 13.5148 14.2803 13.394 14.3499C13.248 14.4339 13.0878 14.4456 12.7672 14.4691C12.4878 14.4896 12.2056 14.5 11.9211 14.5Z" stroke="#585858" stroke-linecap="round" stroke-linejoin="round"/>
</svg>
