<svg width="24" height="24" viewBox="0 0 24 24" fill="none" xmlns="http://www.w3.org/2000/svg">
<rect width="24" height="24" rx="4" fill="#238B45"/>
<path d="M9.83008 8.0767C11.2766 6.53824 12.7232 6.53824 14.1697 8.0767" stroke="white"/>
<path d="M9.83019 9.46154C11.2767 11 12.7233 11 14.1698 9.46154M12 3C8.88679 3 7 5.30769 7 8.07692C7 10.3846 8.41509 12.2308 10.3019 13.1538V15H13.6981V13.1538C15.5849 12.2308 17 10.3846 17 8.07692C17 5.30769 15.1132 3 12 3Z" stroke="white"/>
<path d="M4.3935 21L4.2465 20.566H3.3295L3.1825 21H2.556L3.445 18.543H4.138L5.027 21H4.3935ZM4.0925 20.104L3.788 19.2045L3.487 20.104H4.0925ZM5.29757 21V18.543H5.89607V21H5.29757ZM6.21079 20.0235C6.21079 19.4075 6.61679 19.019 7.19079 19.019C7.68079 19.019 8.02729 19.2885 8.12879 19.754H7.49179C7.44279 19.6175 7.34479 19.53 7.18029 19.53C6.96679 19.53 6.81979 19.698 6.81979 20.0235C6.81979 20.349 6.96679 20.517 7.18029 20.517C7.34479 20.517 7.43929 20.4365 7.49179 20.293H8.12879C8.02729 20.7445 7.68079 21.028 7.19079 21.028C6.61679 21.028 6.21079 20.643 6.21079 20.0235ZM8.32993 20.02C8.32993 19.404 8.71143 19.019 9.19093 19.019C9.48143 19.019 9.68793 19.152 9.79293 19.3235V19.047H10.3914V21H9.79293V20.7235C9.68443 20.895 9.47793 21.028 9.18743 21.028C8.71143 21.028 8.32993 20.636 8.32993 20.02ZM9.79293 20.0235C9.79293 19.712 9.59343 19.5405 9.36593 19.5405C9.14193 19.5405 8.93893 19.7085 8.93893 20.02C8.93893 20.3315 9.14193 20.5065 9.36593 20.5065C9.59343 20.5065 9.79293 20.335 9.79293 20.0235ZM10.7054 20.02C10.7054 19.404 11.0869 19.019 11.5664 19.019C11.8254 19.019 12.0494 19.138 12.1684 19.3165V18.41H12.7669V21H12.1684V20.72C12.0599 20.8985 11.8534 21.028 11.5664 21.028C11.0869 21.028 10.7054 20.636 10.7054 20.02ZM12.1684 20.0235C12.1684 19.712 11.9689 19.5405 11.7414 19.5405C11.5174 19.5405 11.3144 19.7085 11.3144 20.02C11.3144 20.3315 11.5174 20.5065 11.7414 20.5065C11.9689 20.5065 12.1684 20.335 12.1684 20.0235ZM14.0609 19.4985C13.8649 19.4985 13.7144 19.6175 13.6794 19.8345H14.4284C14.4284 19.621 14.2604 19.4985 14.0609 19.4985ZM14.9954 20.3525C14.9009 20.734 14.5544 21.028 14.0679 21.028C13.4939 21.028 13.0809 20.643 13.0809 20.0235C13.0809 19.404 13.4869 19.019 14.0679 19.019C14.6384 19.019 15.0409 19.397 15.0409 19.992C15.0409 20.048 15.0374 20.1075 15.0304 20.167H13.6759C13.6969 20.4225 13.8544 20.5415 14.0469 20.5415C14.2149 20.5415 14.3094 20.4575 14.3584 20.3525H14.9954ZM18.0481 21V19.9395C18.0481 19.684 17.9011 19.544 17.6736 19.544C17.4461 19.544 17.2991 19.684 17.2991 19.9395V21H16.7041V19.9395C16.7041 19.684 16.5571 19.544 16.3296 19.544C16.1021 19.544 15.9551 19.684 15.9551 19.9395V21H15.3566V19.047H15.9551V19.292C16.0706 19.1345 16.2701 19.026 16.5256 19.026C16.8196 19.026 17.0576 19.1555 17.1906 19.39C17.3201 19.1835 17.5651 19.026 17.8486 19.026C18.3316 19.026 18.6431 19.334 18.6431 19.859V21H18.0481ZM19.9612 20.2685L20.4092 19.047H21.0567L19.8317 21.9275H19.1877L19.6357 20.9335L18.8412 19.047H19.5097L19.9612 20.2685Z" fill="white"/>
</svg>
